<?xml version="1.0" standalone="no"?>
<!DOCTYPE svg PUBLIC "-//W3C//DTD SVG 20010904//EN"
 "http://www.w3.org/TR/2001/REC-SVG-20010904/DTD/svg10.dtd">
<svg version="1.0" xmlns="http://www.w3.org/2000/svg"
 width="700.000000pt" height="700.000000pt" viewBox="0 0 700.000000 700.000000"
 preserveAspectRatio="xMidYMid meet">
<metadata>
Created by potrace 1.14, written by Peter Selinger 2001-2017
</metadata>
<g transform="translate(0.000000,700.000000) scale(0.100000,-0.100000)"
fill="#000000" stroke="none">
<path d="M1150 6985 c-377 -76 -667 -388 -706 -760 -9 -78 -9 -5372 0 -5450
36 -350 290 -642 651 -749 70 -20 78 -20 2155 -23 2211 -3 2140 -4 2275 42
135 47 254 122 351 221 110 113 187 252 226 411 l21 88 2 2705 c1 2878 2 2790
-46 2932 -106 308 -375 537 -689 587 -106 16 -4157 13 -4240 -4z m2295 -1749
c181 -38 335 -122 461 -252 258 -265 322 -657 161 -988 -52 -107 -89 -159
-167 -237 -423 -419 -1115 -313 -1393 212 -151 285 -128 644 57 903 137 193
320 310 561 362 59 13 258 12 320 0z m377 -2180 c302 -24 600 -195 782 -446
161 -223 255 -593 186 -735 -24 -49 -77 -96 -129 -113 -25 -9 -389 -12 -1385
-12 -1291 0 -1353 1 -1391 19 -93 43 -128 102 -131 221 -7 327 182 682 466
876 175 120 338 177 550 193 106 8 947 5 1052 -3z"/>
<path d="M6566 6121 c-2 -3 -3 -298 -2 -656 l1 -650 120 -1 c138 -2 193 11
243 57 18 16 42 49 52 72 18 39 19 72 19 527 0 522 1 513 -54 578 -52 61 -93
74 -243 77 -73 1 -134 -1 -136 -4z"/>
<path d="M6571 4371 c-6 -5 -9 -1276 -3 -1303 1 -3 53 -6 115 -7 171 0 238 27
292 120 19 32 20 55 23 494 2 253 0 484 -3 513 -8 64 -52 126 -114 161 -39 21
-57 24 -172 25 -71 1 -133 0 -138 -3z"/>
<path d="M6564 1970 l1 -655 120 -1 c141 -1 197 12 244 58 69 67 66 43 69 573
3 520 2 536 -50 599 -54 66 -94 79 -249 80 l-136 2 1 -656z"/>
</g>
</svg>
